<?xml version="1.0" encoding="UTF-8" standalone="no"?>
<svg width="122px" height="30px" viewBox="0 0 122 30" version="1.1" xmlns="http://www.w3.org/2000/svg" xmlns:xlink="http://www.w3.org/1999/xlink">
    <title>Anduin Logo</title>
    <defs></defs>
    <g stroke="none" stroke-width="1" fill="none" fill-rule="evenodd">
        <g>
            <path d="M17.9411765,0 L0,30 L7.17647059,30 L10.7647059,24 L14.3529412,30 L21.5294118,30 L25.1176471,24 L28.7058824,30 L35.8823529,30 L17.9411765,0 M17.7301038,11.8309859 L14.3529412,17.7464789 L17.7301038,23.6619718 L21.1072664,17.7464789 L17.7301038,11.8309859" fill="#1AB3EC"></path>
            <path d="M50.0439966,4.22535211 L59.1398959,25.8009513 L55.5116146,25.8009513 L53.8486524,21.7153651 L46.1133584,21.7153651 L44.5007889,25.8009513 L40.9480969,25.8009513 L50.0439966,4.22535211 Z M52.7904037,19.1539412 L50.0188,11.9105207 L47.2471963,19.1539412 L52.7904037,19.1539412 Z M60.7236508,13.6560536 L63.5960401,13.6560536 L63.5960401,15.597968 L63.6464329,15.597968 C63.9319935,14.9926929 64.3687267,14.4672884 64.9566456,14.0217388 C65.5445644,13.5761891 66.3424424,13.3534175 67.3503033,13.3534175 C68.1565921,13.3534175 68.8410874,13.4879211 69.4038097,13.7569322 C69.9665321,14.0259434 70.424262,14.3790152 70.7770134,14.8161583 C71.1297647,15.2533014 71.3817262,15.7576897 71.5329053,16.3293384 C71.6840844,16.9009871 71.7596729,17.4978466 71.7596729,18.1199348 L71.7596729,25.7614943 L68.7361052,25.7614943 L68.7361052,19.6331149 C68.7361052,19.296851 68.7193078,18.922763 68.6857124,18.5108397 C68.652117,18.0989164 68.5639305,17.7122187 68.4211502,17.350735 C68.2783699,16.9892512 68.055804,16.6866182 67.7534457,16.4428269 C67.4510874,16.1990356 67.0395504,16.0771417 66.5188222,16.0771417 C66.0148917,16.0771417 65.5907566,16.1612064 65.2464041,16.3293384 C64.9020516,16.4974704 64.6164953,16.7244451 64.3897266,17.0102694 C64.1629579,17.2960938 63.999183,17.6239462 63.8983969,17.9938365 C63.7976108,18.3637268 63.7472185,18.7504245 63.7472185,19.1539412 L63.7472185,25.7614943 L60.7236508,25.7614943 L60.7236508,13.6560536 Z M84.3794499,23.9456782 L84.3290571,23.9456782 C83.8923174,24.6854588 83.3044073,25.223473 82.5653093,25.559737 C81.8262113,25.8960009 81.0283333,26.0641303 80.1716515,26.0641303 C79.2309813,26.0641303 78.3953092,25.9002041 77.66461,25.5723468 C76.9339108,25.2444895 76.3082065,24.7947432 75.7874784,24.2230945 C75.2667502,23.6514459 74.8720106,22.9789281 74.6032477,22.2055211 C74.3344848,21.4321141 74.2001053,20.5998733 74.2001053,19.7087739 C74.2001053,18.8176745 74.3428835,17.9854338 74.6284441,17.2120268 C74.9140047,16.4386198 75.3129437,15.766102 75.825273,15.1944533 C76.3376023,14.6228047 76.9549078,14.1730584 77.6772082,13.8452011 C78.3995085,13.5173437 79.1889877,13.3534175 80.0456695,13.3534175 C80.6167907,13.3534175 81.1207136,13.4122628 81.5574534,13.5299552 C81.9941931,13.6476476 82.380534,13.7989641 82.7164877,13.9839092 C83.0524413,14.1688544 83.3379976,14.3664065 83.5731652,14.5765715 C83.8083327,14.7867364 84.0015032,14.992695 84.1526823,15.1944533 L84.2282715,15.1944533 L84.2282715,4.33139855 L87.2518392,4.33139855 L87.2518392,25.7614943 L84.3794499,25.7614943 L84.3794499,23.9456782 Z M77.223673,19.7087739 C77.223673,20.1795434 77.3034608,20.6334929 77.4630388,21.070636 C77.6226168,21.5077791 77.8577808,21.8944768 78.1685379,22.2307408 C78.479295,22.5670047 78.8530379,22.8360118 79.2897776,23.0377701 C79.7265174,23.2395285 80.2220415,23.3404062 80.7763651,23.3404062 C81.3306886,23.3404062 81.8262128,23.2395285 82.2629525,23.0377701 C82.6996923,22.8360118 83.0734351,22.5670047 83.3841922,22.2307408 C83.6949493,21.8944768 83.9301133,21.5077791 84.0896913,21.070636 C84.2492693,20.6334929 84.3290571,20.1795434 84.3290571,19.7087739 C84.3290571,19.2380044 84.2492693,18.7840549 84.0896913,18.3469118 C83.9301133,17.9097687 83.6949493,17.523071 83.3841922,17.1868071 C83.0734351,16.8505432 82.6996923,16.5815361 82.2629525,16.3797777 C81.8262128,16.1780194 81.3306886,16.0771417 80.7763651,16.0771417 C80.2220415,16.0771417 79.7265174,16.1780194 79.2897776,16.3797777 C78.8530379,16.5815361 78.479295,16.8505432 78.1685379,17.1868071 C77.8577808,17.523071 77.6226168,17.9097687 77.4630388,18.3469118 C77.3034608,18.7840549 77.223673,19.2380044 77.223673,19.7087739 L77.223673,19.7087739 Z M101.333007,25.7614943 L98.460618,25.7614943 L98.460618,23.8195798 L98.4102252,23.8195798 C98.1246646,24.4248549 97.6879314,24.9502594 97.1000125,25.3958091 C96.5120936,25.8413588 95.7142157,26.0641303 94.7063548,26.0641303 C93.900066,26.0641303 93.2155707,25.93383 92.6528484,25.6732255 C92.090126,25.4126209 91.632396,25.0595491 91.2796447,24.6139994 C90.9268934,24.1684497 90.6749319,23.6598581 90.5237528,23.0882095 C90.3725736,22.5165608 90.2969852,21.9197013 90.2969852,21.297613 L90.2969852,13.6560536 L93.3205529,13.6560536 L93.3205529,19.7844329 C93.3205529,20.1206969 93.3373503,20.4947849 93.3709457,20.9067082 C93.4045411,21.3186315 93.4927276,21.7053292 93.6355079,22.0668129 C93.7782882,22.4282966 93.9966548,22.7309296 94.2906142,22.974721 C94.5845736,23.2185123 95.00031,23.3404062 95.5378359,23.3404062 C96.0417663,23.3404062 96.4659015,23.2563414 96.8102539,23.0882095 C97.1546064,22.9200775 97.4401627,22.6931028 97.6669315,22.4072784 C97.8937002,22.1214541 98.0574751,21.7936017 98.1582612,21.4237114 C98.2590473,21.0538211 98.3094396,20.6671233 98.3094396,20.2636066 L98.3094396,13.6560536 L101.333007,13.6560536 L101.333007,25.7614943 Z M104.428546,13.6560536 L107.452114,13.6560536 L107.452114,25.7614943 L104.428546,25.7614943 L104.428546,13.6560536 Z M104.000207,9.54524764 C104.000207,9.05766495 104.18078,8.63313812 104.54193,8.2716544 C104.90308,7.91017068 105.36081,7.72943153 105.915134,7.72943153 C106.469457,7.72943153 106.935586,7.90176421 107.313534,8.24643473 C107.691481,8.59110525 107.880453,9.02403856 107.880453,9.54524764 C107.880453,10.0664567 107.691481,10.49939 107.313534,10.8440606 C106.935586,11.1887311 106.469457,11.3610638 105.915134,11.3610638 C105.36081,11.3610638 104.90308,11.1803246 104.54193,10.8188409 C104.18078,10.4573572 104.000207,10.0328303 104.000207,9.54524764 L104.000207,9.54524764 Z M110.547653,13.6560536 L113.420042,13.6560536 L113.420042,15.597968 L113.470435,15.597968 C113.755995,14.9926929 114.192728,14.4672884 114.780647,14.0217388 C115.368566,13.5761891 116.166444,13.3534175 117.174305,13.3534175 C117.980594,13.3534175 118.665089,13.4879211 119.227811,13.7569322 C119.790534,14.0259434 120.248264,14.3790152 120.601015,14.8161583 C120.953766,15.2533014 121.205728,15.7576897 121.356907,16.3293384 C121.508086,16.9009871 121.583675,17.4978466 121.583675,18.1199348 L121.583675,25.7614943 L118.560107,25.7614943 L118.560107,19.6331149 C118.560107,19.296851 118.54331,18.922763 118.509714,18.5108397 C118.476119,18.0989164 118.387932,17.7122187 118.245152,17.350735 C118.102372,16.9892512 117.879806,16.6866182 117.577447,16.4428269 C117.275089,16.1990356 116.863552,16.0771417 116.342824,16.0771417 C115.838893,16.0771417 115.414758,16.1612064 115.070406,16.3293384 C114.726053,16.4974704 114.440497,16.7244451 114.213728,17.0102694 C113.98696,17.2960938 113.823185,17.6239462 113.722399,17.9938365 C113.621613,18.3637268 113.57122,18.7504245 113.57122,19.1539412 L113.57122,25.7614943 L110.547653,25.7614943 L110.547653,13.6560536 Z" fill="#1C2331"></path>
        </g>
    </g>
</svg>